<svg width="15" height="15" viewBox="0 0 15 15" fill="none" xmlns="http://www.w3.org/2000/svg">
<g clip-path="url(#clip0_3325_397)">
<path d="M6.86035 14.9028C6.3624 15.0644 5.82065 15.0216 5.35427 14.7838C4.88789 14.5459 4.53509 14.1326 4.37347 13.6347C4.21185 13.1367 4.25467 12.595 4.49249 12.1286C4.7303 11.6622 5.14365 11.3094 5.6416 11.1478C6.13954 10.9862 6.68129 11.029 7.14767 11.2668C7.61405 11.5046 7.96686 11.918 8.12847 12.4159C8.29009 12.9139 8.24728 13.4556 8.00946 13.922C7.77164 14.3884 7.35829 14.7412 6.86035 14.9028ZM10.9566 13.1009C13.486 12.279 15.5285 9.36278 14.5122 6.23591C13.496 3.10903 10.1297 1.95091 7.60097 2.77278C7.3171 2.86489 7.07862 3.06104 6.93346 3.3218C6.78829 3.58256 6.74721 3.8886 6.81847 4.17841L7.07722 5.22966C7.11603 5.3874 7.18692 5.53545 7.28548 5.66458C7.38403 5.79371 7.50814 5.90115 7.65005 5.9802C7.79196 6.05925 7.94864 6.10821 8.11031 6.12403C8.27198 6.13985 8.43518 6.12219 8.58972 6.07216L8.69097 6.03903C9.8541 5.66028 10.936 6.35403 11.2353 7.30091C11.551 8.24278 11.0828 9.43966 9.9191 9.81778L9.81785 9.85153C9.6634 9.90179 9.52097 9.98334 9.39944 10.0911C9.27792 10.1988 9.1799 10.3305 9.11152 10.4778C9.04314 10.6251 9.00586 10.785 9.002 10.9473C8.99814 11.1097 9.02779 11.2711 9.0891 11.4215L9.49722 12.424C9.60999 12.7003 9.82315 12.9237 10.0939 13.0493C10.3646 13.1749 10.6728 13.1933 10.9566 13.1009ZM6.60535 8.11216L4.90097 1.09466C4.85384 0.90273 4.76763 0.722585 4.64775 0.565472C4.52786 0.408359 4.37686 0.277655 4.20419 0.181523C4.03151 0.0853917 3.84087 0.0258977 3.64417 0.00675758C3.44747 -0.0123825 3.24894 0.00924252 3.06097 0.0702819L1.21597 0.669657C1.02802 0.730721 0.854681 0.829884 0.706777 0.96095C0.558872 1.09202 0.439581 1.25217 0.356354 1.43141C0.273127 1.61065 0.227751 1.80513 0.223061 2.00269C0.218371 2.20026 0.254467 2.39667 0.329096 2.57966L3.07535 9.25903C3.21256 9.59521 3.47191 9.867 3.80129 10.0198C4.13068 10.1726 4.50568 10.1951 4.85097 10.0828L5.6541 9.82216C5.99942 9.71012 6.2895 9.47147 6.46598 9.15421C6.64247 8.83696 6.69226 8.46464 6.60535 8.11216Z" fill="white"/>
</g>
<defs>
<clipPath id="clip0_3325_397">
<rect width="15" height="15" fill="white"/>
</clipPath>
</defs>
</svg>
