<svg width="20" height="20" viewBox="0 0 20 20" fill="none" xmlns="http://www.w3.org/2000/svg">
<path fill-rule="evenodd" clip-rule="evenodd" d="M10.0048 2.8125C9.07547 2.8125 8.18417 3.18169 7.52702 3.83885C6.86986 4.49601 6.50067 5.3873 6.50067 6.31667V6.46792H13.509V6.31667C13.509 5.3873 13.1398 4.49601 12.4827 3.83885C11.8255 3.18169 10.9342 2.8125 10.0048 2.8125ZM15.384 6.46792V6.31667C15.384 4.89002 14.8173 3.52181 13.8085 2.51302C12.7997 1.50423 11.4315 0.9375 10.0048 0.9375C8.57819 0.9375 7.20998 1.50423 6.20119 2.51302C5.1924 3.52181 4.62567 4.89002 4.62567 6.31667V6.46792H3.49317C3.22561 6.46792 2.97081 6.58224 2.79291 6.78208C2.61502 6.98193 2.53099 7.24827 2.56198 7.51402L3.6403 16.7598C3.6403 16.7597 3.64031 16.7598 3.6403 16.7598C3.71422 17.3939 4.01852 17.9789 4.49536 18.4034C4.97223 18.8279 5.58843 19.0625 6.22689 19.0625H13.7728C14.4112 19.0625 15.0274 18.8279 15.5043 18.4034C15.9811 17.9789 16.2854 17.394 16.3594 16.7599C16.3594 16.7599 16.3594 16.7598 16.3594 16.7599L17.4377 7.51402C17.4687 7.24827 17.3847 6.98193 17.2068 6.78208C17.0289 6.58224 16.7741 6.46792 16.5065 6.46792H15.384ZM14.4465 8.34292H4.54636L5.50269 16.5426C5.52338 16.7202 5.60859 16.8841 5.74212 17.0029C5.87563 17.1218 6.04816 17.1875 6.22692 17.1875M14.4465 8.34292H15.4533L14.497 16.5426C14.4763 16.7202 14.3911 16.8841 14.2576 17.0029C14.124 17.1218 13.9515 17.1875 13.7728 17.1875C13.7728 17.1875 13.7727 17.1875 13.7728 17.1875H6.22692" fill="white"/>
<path fill-rule="evenodd" clip-rule="evenodd" d="M9.45898 10.2656C9.21034 10.2656 8.97189 10.3644 8.79607 10.5402C8.62026 10.716 8.52148 10.9545 8.52148 11.2031C8.52148 11.4518 8.62026 11.6902 8.79607 11.866C8.97189 12.0419 9.21034 12.1406 9.45898 12.1406H10.5407C11.1208 12.1406 11.6772 12.3711 12.0874 12.7813C12.4977 13.1916 12.7282 13.748 12.7282 14.3281C12.7282 14.9083 12.4977 15.4647 12.0874 15.8749C11.6772 16.2852 11.1208 16.5156 10.5407 16.5156H10.0598C9.0386 16.5156 8.39876 16.3876 7.76204 15.9103C7.48584 15.7033 7.42977 15.3115 7.6368 15.0353C7.84383 14.7591 8.23556 14.7031 8.51176 14.9101C8.83671 15.1537 9.15854 15.2656 10.0598 15.2656H10.5407C10.7893 15.2656 11.0277 15.1669 11.2036 14.991C11.3794 14.8152 11.4782 14.5768 11.4782 14.3281C11.4782 14.0795 11.3794 13.841 11.2036 13.6652C11.0277 13.4894 10.7893 13.3906 10.5407 13.3906H9.45898C8.87882 13.3906 8.32242 13.1602 7.91219 12.7499C7.50195 12.3397 7.27148 11.7833 7.27148 11.2031C7.27148 10.623 7.50195 10.0666 7.91219 9.65633C8.32242 9.24609 8.87882 9.01562 9.45898 9.01562H9.93982C11.0309 9.01562 11.75 9.12483 12.3047 9.67952C12.5488 9.92359 12.5488 10.3193 12.3047 10.5634C12.0606 10.8075 11.6649 10.8075 11.4208 10.5634C11.2546 10.3972 11.0121 10.2656 9.93982 10.2656H9.45898Z" fill="white"/>
</svg>
