<svg width="20" height="20" viewBox="0 0 20 20" fill="none" xmlns="http://www.w3.org/2000/svg">
<path fill-rule="evenodd" clip-rule="evenodd" d="M11.323 4.62364C12.9168 3.91228 15.0699 3.71188 17.7775 4.03919C18.1116 4.07957 18.3632 4.36262 18.3642 4.69915L17.6975 4.70104C18.3642 4.69915 18.3642 4.69908 18.3642 4.69915L18.3677 6.07626C18.3696 6.91123 18.3719 8.0392 18.3734 9.2111C18.3765 11.55 18.3765 14.0775 18.3641 14.7877C18.3478 15.7196 17.825 16.6877 17.0418 17.4123C16.2444 18.15 15.1196 18.6928 13.7971 18.725C12.6405 18.7532 10.1977 18.7531 8.05443 18.7461C6.98054 18.7426 5.97837 18.7374 5.24472 18.733C4.87787 18.7309 4.57812 18.7289 4.37005 18.7275L4.04581 18.7252C4.04575 18.7252 4.04545 18.7252 4.05046 18.0585L4.04581 18.7252C3.86819 18.7239 3.6981 18.6517 3.5739 18.5247C3.44969 18.3978 3.38129 18.2265 3.38386 18.0489L3.58094 4.44471C3.58604 4.09283 3.86378 3.80551 4.21529 3.78848L4.24754 4.45437C4.21529 3.78848 4.21517 3.78849 4.21529 3.78848L4.22055 3.78824L4.23381 3.78763L4.28345 3.78551C4.32651 3.78375 4.38916 3.78136 4.46899 3.77877C4.62861 3.7736 4.85721 3.76762 5.1356 3.76429C5.69151 3.75765 6.45025 3.76153 7.25714 3.8041C8.06082 3.8465 8.92918 3.9281 9.69859 4.08125C10.2698 4.19496 10.8568 4.36058 11.323 4.62364ZM4.9049 5.10137C4.98147 5.0999 5.0639 5.09858 5.15153 5.09753C5.68873 5.09111 6.41722 5.09497 7.18689 5.13558C7.95978 5.17636 8.75731 5.25338 9.43829 5.38893C10.15 5.5306 10.6199 5.71553 10.8382 5.89993L11.2684 5.39062L11.5785 5.98076C12.7696 5.35483 14.5464 5.0672 17.0324 5.29999L17.0343 6.07933C17.0363 6.91402 17.0386 8.04152 17.0401 9.21285C17.0432 11.5604 17.0431 14.0704 17.031 14.7644C17.0227 15.2367 16.7326 15.8819 16.1363 16.4336C15.5543 16.972 14.733 17.3685 13.7646 17.3921C12.6304 17.4197 10.208 17.4198 8.05877 17.4128C6.98642 17.4093 5.98551 17.4041 5.25265 17.3997C5.057 17.3986 4.88046 17.3975 4.72678 17.3965L4.9049 5.10137Z" fill="white"/>
<path fill-rule="evenodd" clip-rule="evenodd" d="M8.13746 7.4987C6.71625 7.4987 5.56413 8.65082 5.56413 10.072C5.56413 11.4932 6.71625 12.6454 8.13746 12.6454C9.55867 12.6454 10.7108 11.4932 10.7108 10.072C10.7108 8.65082 9.55867 7.4987 8.13746 7.4987ZM4.89746 10.072C4.89746 8.28263 6.34806 6.83203 8.13746 6.83203C9.92686 6.83203 11.3775 8.28263 11.3775 10.072C11.3775 11.8614 9.92686 13.312 8.13746 13.312C6.34806 13.312 4.89746 11.8614 4.89746 10.072Z" fill="white"/>
<path fill-rule="evenodd" clip-rule="evenodd" d="M8.60504 2.3619C9.25787 1.84202 10.0718 1.56643 10.9061 1.58271C11.7405 1.599 12.543 1.90614 13.1751 2.45111C13.8071 2.99607 14.229 3.74463 14.3679 4.56754C14.3986 4.74906 14.2763 4.92106 14.0947 4.9517C13.9132 4.98234 13.7412 4.86003 13.7106 4.6785C13.5975 4.00877 13.2541 3.39953 12.7397 2.95601C12.2253 2.51248 11.5722 2.26251 10.8931 2.24925C10.214 2.236 9.55166 2.46029 9.02034 2.88341C8.48902 3.30652 8.12213 3.90189 7.98303 4.5667C7.94532 4.7469 7.76868 4.86241 7.58849 4.8247C7.4083 4.787 7.29279 4.61036 7.33049 4.43017C7.50141 3.61331 7.9522 2.88178 8.60504 2.3619ZM4.5168 4.26094C4.62473 4.41008 4.59131 4.61847 4.44217 4.7264L2.70626 5.98256L2.6258 16.261L4.27829 17.8184C4.41226 17.9446 4.41852 18.1556 4.29226 18.2895C4.166 18.4235 3.95504 18.4298 3.82106 18.3035L2.06273 16.6464C1.99523 16.5828 1.95729 16.494 1.95802 16.4012L2.04093 5.80874C2.04176 5.70274 2.09296 5.60345 2.17884 5.54131L4.05134 4.18631C4.20049 4.07838 4.40888 4.1118 4.5168 4.26094ZM14.2346 6.90176C14.9547 6.85375 15.6675 7.07177 16.2375 7.51444C16.8076 7.95711 17.1953 8.59363 17.3272 9.30324C17.459 10.0129 17.3258 10.7462 16.9528 11.3641C16.5798 11.982 15.993 12.4415 15.3037 12.6554C14.6143 12.8693 13.8705 12.8227 13.2132 12.5245C13.0456 12.4484 12.9713 12.2509 13.0474 12.0832C13.1234 11.9156 13.321 11.8413 13.4887 11.9174C13.9972 12.1481 14.5727 12.1842 15.1061 12.0187C15.6395 11.8532 16.0935 11.4976 16.3821 11.0196C16.6707 10.5415 16.7738 9.97408 16.6717 9.42503C16.5697 8.87599 16.2697 8.3835 15.8286 8.04099C15.3876 7.69849 14.8361 7.52981 14.2789 7.56695C13.7217 7.60409 13.1975 7.84447 12.8058 8.24249C12.4141 8.6405 12.1821 9.16846 12.1539 9.72618C12.1256 10.2839 12.3031 10.8326 12.6526 11.2682C12.7678 11.4117 12.7448 11.6215 12.6012 11.7368C12.4576 11.852 12.2478 11.829 12.1326 11.6854C11.6809 11.1225 11.4515 10.4133 11.488 9.69246C11.5246 8.97163 11.8244 8.28927 12.3307 7.77486C12.8369 7.26044 13.5144 6.94976 14.2346 6.90176Z" fill="white"/>
<path fill-rule="evenodd" clip-rule="evenodd" d="M14.332 7.85938C14.7783 7.85968 15.2127 8.00348 15.5711 8.26956C15.9294 8.53564 16.1927 8.90989 16.3221 9.33706C16.4515 9.76423 16.4401 10.2217 16.2896 10.6419C16.1391 11.0621 15.8574 11.4227 15.4863 11.6706C15.1151 11.9185 14.6741 12.0405 14.2283 12.0185C13.9667 12.0057 13.7117 11.9436 13.4758 11.8374C13.4968 11.8624 13.5169 11.8872 13.5361 11.9117C13.6842 12.1 13.7963 12.2864 13.8713 12.4249C13.9089 12.4945 13.9377 12.5531 13.9575 12.595C13.9674 12.616 13.975 12.6329 13.9804 12.645L13.9868 12.6596L13.9887 12.6641L13.9893 12.6656C13.9893 12.6657 13.9897 12.6666 13.6822 12.7952L13.9897 12.6666C14.0604 12.8357 13.9814 13.0302 13.8127 13.1019C13.0879 13.4103 12.3229 13.6079 11.5431 13.6899C11.9439 13.9125 12.384 14.0619 12.8428 14.1282L12.7951 14.4581C12.9951 14.7248 12.9949 14.725 12.9946 14.7252L12.9933 14.7262L12.9914 14.7276L12.9871 14.7306L12.977 14.7376C12.9695 14.7426 12.9605 14.7484 12.9499 14.7548C12.9287 14.7676 12.9011 14.7827 12.8663 14.7994C12.7966 14.8326 12.6981 14.8715 12.5637 14.9086C12.2954 14.9827 11.8831 15.0498 11.2682 15.0498M11.428 14.3814C11.3767 14.3825 11.3234 14.3831 11.268 14.3831C11.0906 14.3832 10.9687 14.3373 10.8797 14.2747C10.7876 14.21 10.7109 14.1135 10.6493 13.9856C10.629 13.9434 10.611 13.8991 10.595 13.8532C10.8531 14.0602 11.1326 14.2372 11.428 14.3814ZM10.4839 13.0788C10.4867 12.5887 10.6598 12.2842 10.9148 12.0913C11.1871 11.8854 11.5971 11.7735 12.1176 11.7735C12.4593 11.7735 12.7645 12.0088 13.0121 12.3238C13.0927 12.4262 13.161 12.5295 13.2161 12.6215C12.3749 12.9309 11.4824 13.0817 10.5841 13.0653C10.5496 13.0646 10.5159 13.0693 10.4839 13.0788ZM9.8172 13.0906C9.8173 12.4144 10.0666 11.897 10.5127 11.5596C10.9438 11.2336 11.5173 11.1069 12.1176 11.1069C12.3289 11.1069 12.5216 11.1527 12.6953 11.227C12.5151 10.9979 12.3839 10.7321 12.3122 10.4461C12.2037 10.0131 12.2373 9.55679 12.408 9.14439C12.4515 9.03925 12.5456 8.96357 12.6577 8.94368C12.7697 8.92378 12.8842 8.96242 12.9612 9.04615C13.0662 9.1602 13.2084 9.23299 13.3623 9.2514C13.5162 9.2698 13.6716 9.23261 13.8005 9.14653C13.9294 9.06045 14.0233 8.93114 14.0653 8.78194C14.1072 8.63273 14.0945 8.47344 14.0293 8.33281L14.3318 8.19271L14.332 7.85938M14.7561 8.59158C14.7575 8.71596 14.7412 8.84082 14.707 8.96239C14.6221 9.26463 14.4319 9.52655 14.1708 9.70092C13.9097 9.87529 13.5949 9.95063 13.2832 9.91335C13.1578 9.89835 13.0362 9.86553 12.9218 9.81663C12.9082 9.97241 12.9204 10.1304 12.9589 10.284C13.0326 10.5782 13.199 10.841 13.4335 11.0334C13.668 11.2258 13.9581 11.3378 14.2611 11.3527C14.564 11.3676 14.8638 11.2847 15.116 11.1162C15.3683 10.9477 15.5597 10.7026 15.6619 10.4171C15.7642 10.1315 15.772 9.82061 15.6841 9.5303C15.5961 9.23999 15.4172 8.98564 15.1737 8.80481C15.0465 8.71039 14.9052 8.63863 14.7561 8.59158ZM8.93343 8.77877C9.08551 8.84429 9.22633 8.93558 9.34929 9.04962C9.57932 9.26297 9.73464 9.54463 9.79232 9.85302C9.85001 10.1614 9.80699 10.4802 9.66963 10.7622C9.53226 11.0443 9.30784 11.2747 9.02948 11.4195C8.75113 11.5642 8.43361 11.6156 8.12381 11.5661C7.81401 11.5165 7.52836 11.3687 7.30902 11.1443C7.08969 10.92 6.94832 10.6311 6.90577 10.3203C6.883 10.1539 6.88917 9.98607 6.92296 9.8238C7.03656 9.88947 7.16001 9.93864 7.28975 9.96894C7.60221 10.0419 7.93047 10.0006 8.21514 9.85259C8.49981 9.70453 8.72208 9.45946 8.84173 9.16173C8.89132 9.03833 8.92193 8.90925 8.93343 8.77877ZM8.24093 8.45829C8.28766 8.60725 8.28148 8.76798 8.22315 8.91314C8.16287 9.06311 8.05091 9.18655 7.90752 9.26114C7.76413 9.33572 7.59877 9.35651 7.44138 9.31974C7.28399 9.28298 7.14495 9.1911 7.04943 9.06071C6.98211 8.96882 6.87252 8.91767 6.75885 8.92508C6.64517 8.93249 6.54316 8.99744 6.48834 9.0973C6.26854 9.49768 6.18332 9.95814 6.24526 10.4107C6.3072 10.8632 6.51303 11.2838 6.83234 11.6104C7.15165 11.937 7.56752 12.1522 8.01854 12.2244C8.46956 12.2965 8.93182 12.2217 9.33705 12.0109C9.74229 11.8002 10.069 11.4648 10.269 11.0541C10.469 10.6435 10.5316 10.1794 10.4476 9.73045C10.3636 9.28149 10.1375 8.87143 9.80264 8.56083C9.47253 8.25466 9.05399 8.06112 8.60726 8.00777C8.50131 7.98987 8.39266 8.02418 8.31608 8.10076C8.22544 8.1914 8.19439 8.32641 8.23688 8.44736C8.23817 8.45104 8.23952 8.45468 8.24093 8.45829ZM9.8172 13.0906C9.81724 13.4108 9.85723 13.8769 10.0486 14.2746C10.1463 14.4777 10.289 14.6745 10.4965 14.8203C10.707 14.9682 10.9653 15.0499 11.2682 15.0498" fill="white"/>
<path fill-rule="evenodd" clip-rule="evenodd" d="M12.6123 12.8209C12.796 12.8099 12.954 12.9498 12.965 13.1336C12.9924 13.5868 12.9533 14.0415 12.8493 14.4834C12.8071 14.6626 12.6276 14.7736 12.4484 14.7314C12.2692 14.6892 12.1582 14.5098 12.2004 14.3306C12.2896 13.9518 12.323 13.5621 12.2996 13.1737C12.2885 12.9899 12.4285 12.832 12.6123 12.8209Z" fill="white"/>
</svg>
